<svg width="85" height="42" viewBox="0 0 85 42" fill="none" xmlns="http://www.w3.org/2000/svg">
<path d="M6.60799 6.434C6.21599 6.49933 5.82866 6.532 5.44599 6.532C4.98866 6.532 4.58733 6.48067 4.24199 6.378C4.26066 6.28467 4.26999 6.21933 4.26999 6.182C4.26999 5.96733 4.19066 5.79 4.03199 5.65C3.87333 5.51 3.69599 5.44 3.49999 5.44C3.35999 5.44 3.23399 5.48667 3.12199 5.58C3.01933 5.664 2.95866 5.79467 2.93999 5.972C2.91199 6.056 2.89799 6.13067 2.89799 6.196L2.91199 6.322C2.91199 6.34067 2.91199 6.35 2.91199 6.35C2.97733 6.546 3.07066 6.68133 3.19199 6.756C3.32266 6.83067 3.47666 6.882 3.65399 6.91C4.12066 6.97533 4.59199 7.148 5.06799 7.428C5.54399 7.708 5.92666 8.03467 6.21599 8.408C6.39333 8.65067 6.53333 8.92133 6.63599 9.22C6.73866 9.50933 6.78999 9.794 6.78999 10.074C6.78999 10.5593 6.68266 11.0307 6.46799 11.488C6.22533 12.0107 5.85199 12.4167 5.34799 12.706C4.84399 12.9953 4.29333 13.14 3.69599 13.14C3.08933 13.14 2.49666 13.0233 1.91799 12.79C1.34866 12.5473 0.886659 12.202 0.531992 11.754C0.177325 11.306 0.0186586 10.788 0.0559919 10.2V10.074C0.326659 10.0273 0.625325 10.004 0.951992 10.004C1.23199 10.004 1.46999 10.0087 1.66599 10.018C1.84333 10.0273 2.16066 10.032 2.61799 10.032C2.62733 10.312 2.71133 10.5313 2.86999 10.69C3.03799 10.8487 3.22933 10.928 3.44399 10.928C3.63066 10.928 3.78466 10.8673 3.90599 10.746C4.03666 10.6247 4.10199 10.452 4.10199 10.228C4.10199 10.144 4.09733 10.0787 4.08799 10.032C4.04133 9.68667 3.87799 9.444 3.59799 9.304C3.31799 9.164 2.93999 9.04733 2.46399 8.954L2.25399 8.912C1.85266 8.83733 1.50266 8.674 1.20399 8.422C0.867992 8.09533 0.615992 7.74533 0.447992 7.372C0.279992 6.99867 0.195992 6.62533 0.195992 6.252C0.195992 5.64533 0.377992 5.076 0.741992 4.544C1.11533 4.00267 1.59599 3.61067 2.18399 3.368C2.54799 3.21867 3.00066 3.144 3.54199 3.144C4.24199 3.144 4.88133 3.27467 5.45999 3.536C5.88933 3.76 6.22999 4.054 6.48199 4.418C6.73399 4.782 6.85999 5.21133 6.85999 5.706C6.85999 5.89267 6.83199 6.13533 6.77599 6.434H6.60799ZM9.46891 6.504C9.47825 6.504 9.47825 6.504 9.46891 6.504C9.46891 6.49467 9.47358 6.49 9.48291 6.49C9.70691 6.34067 9.96358 6.224 10.2529 6.14C10.5516 6.04667 10.8456 6 11.1349 6C11.7509 6 12.2269 6.14933 12.5629 6.448C12.8242 6.68133 12.9549 7.45133 12.9549 8.758C12.9549 9.14067 12.9456 9.724 12.9269 10.508C12.9082 11.18 12.8989 11.6607 12.8989 11.95C12.8989 12.2673 12.9082 12.622 12.9269 13.014C12.4136 13.0887 11.9096 13.1167 11.4149 13.098H10.7569C10.7382 12.818 10.7289 12.2767 10.7289 11.474V10.774C10.7289 10.3167 10.7196 9.98533 10.7009 9.78L10.6869 9.696V9.598C10.6682 9.33667 10.6449 9.13133 10.6169 8.982C10.5982 8.83267 10.5376 8.69267 10.4349 8.562C10.3416 8.43133 10.1922 8.366 9.98691 8.366C9.83758 8.366 9.70225 8.43133 9.58091 8.562C9.45958 8.69267 9.39425 8.88867 9.38491 9.15C9.37558 9.29 9.37091 9.50467 9.37091 9.794C9.37091 10.0273 9.38025 10.368 9.39891 10.816C9.41758 11.2827 9.42691 11.6327 9.42691 11.866C9.42691 12.286 9.40825 12.6593 9.37091 12.986C9.11891 13.0513 8.91358 13.0887 8.75491 13.098C8.60558 13.1167 8.43758 13.1213 8.25091 13.112C8.16691 13.1027 8.03158 13.098 7.84491 13.098C7.63025 13.098 7.42025 13.1073 7.21491 13.126C7.21491 12.006 7.21025 11.1753 7.20091 10.634C7.18225 9.42067 7.17291 8.50133 7.17291 7.876C7.17291 7.41867 7.18225 6.77 7.20091 5.93C7.49958 5.96733 7.73291 5.986 7.90091 5.986C8.05958 5.986 8.21358 5.97667 8.36291 5.958L8.60091 5.93C8.80625 5.91133 8.96491 5.902 9.07691 5.902C9.30091 5.902 9.42225 5.93467 9.44091 6C9.45958 6.112 9.46891 6.27533 9.46891 6.49V6.504ZM19.5376 5.958C19.5376 6.00467 19.5423 6.084 19.5516 6.196C19.5703 6.308 19.5796 6.41067 19.5796 6.504C19.5703 6.74667 19.5656 7.11067 19.5656 7.596C19.5656 8.24933 19.5703 8.73933 19.5796 9.066V9.906L19.5936 10.746C19.5936 11.2967 19.5796 11.8613 19.5516 12.44V12.58C19.5516 12.7293 19.533 12.846 19.4956 12.93C19.4583 13.0047 19.3603 13.056 19.2016 13.084H17.4236C17.209 13.0187 17.1016 12.8927 17.1016 12.706V12.608C16.8683 12.7573 16.6116 12.8787 16.3316 12.972C16.0516 13.056 15.781 13.098 15.5196 13.098C15.025 13.098 14.605 12.8973 14.2596 12.496C13.9236 12.0947 13.6716 11.6 13.5036 11.012C13.3356 10.4147 13.2516 9.836 13.2516 9.276C13.2516 8.66 13.3636 8.10467 13.5876 7.61C13.8116 7.106 14.1196 6.70933 14.5116 6.42C14.9036 6.13067 15.3376 5.98133 15.8136 5.972C16.103 5.972 16.3736 5.99533 16.6256 6.042C16.8776 6.08867 17.0363 6.14467 17.1016 6.21C17.1016 6.16333 17.0923 6.10267 17.0736 6.028C17.055 5.95333 17.0596 5.89733 17.0876 5.86C17.1063 5.84133 17.1716 5.832 17.2836 5.832C17.4516 5.832 17.671 5.846 17.9416 5.874C18.2216 5.89267 18.399 5.90667 18.4736 5.916L19.3556 5.958H19.5376ZM15.3936 9.556C15.3936 9.96667 15.487 10.312 15.6736 10.592C15.8603 10.8627 16.1123 10.998 16.4296 10.998C16.635 10.998 16.7843 10.942 16.8776 10.83C16.971 10.718 17.027 10.5687 17.0456 10.382C17.0736 10.1953 17.0876 9.91533 17.0876 9.542V9.178C17.0876 8.77667 17.0783 8.506 17.0596 8.366C17.0503 8.21667 17.0083 8.11867 16.9336 8.072C16.8683 8.016 16.747 7.988 16.5696 7.988C16.271 7.988 16.0283 8.072 15.8416 8.24C15.655 8.39867 15.5336 8.59467 15.4776 8.828C15.4216 9.01467 15.3936 9.25733 15.3936 9.556ZM24.3759 9.794C25.1692 11.026 25.8039 12.118 26.2799 13.07L25.4399 13.098C25.0665 13.1167 24.7725 13.126 24.5579 13.126C24.1379 13.126 23.8299 13.1027 23.6339 13.056C23.5778 12.9627 23.4285 12.6873 23.1859 12.23L23.0039 11.88C22.9012 11.7027 22.8499 11.6047 22.8499 11.586L22.5139 10.928V11.306L22.5279 11.754C22.5279 12.314 22.4952 12.7573 22.4299 13.084C22.3179 13.0747 22.0052 13.07 21.4919 13.07C21.2119 13.0887 20.9785 13.098 20.7919 13.098C20.6052 13.098 20.3999 13.0793 20.1759 13.042C20.1385 12.0713 20.1199 10.9747 20.1199 9.752C20.1199 9.03333 20.1292 7.96467 20.1479 6.546C20.1665 5.10867 20.1759 3.84867 20.1759 2.766C20.5585 2.766 20.8245 2.76133 20.9739 2.752H21.3239L21.6879 2.738L22.1639 2.766L22.4999 2.78V6.224L22.4859 6.56C22.4765 6.70933 22.4719 6.924 22.4719 7.204L22.4579 7.372C22.5605 7.26 22.6352 7.15733 22.6819 7.064C22.7285 6.97067 22.7659 6.896 22.7939 6.84C22.8125 6.812 22.8312 6.77467 22.8499 6.728C22.8779 6.672 22.9059 6.62067 22.9339 6.574V6.588C23.1765 6.17733 23.4052 5.846 23.6199 5.594C23.8905 5.68733 24.1612 5.734 24.4319 5.734C24.5812 5.734 24.8145 5.72467 25.1318 5.706H25.2019C25.2952 5.69667 25.4632 5.692 25.7058 5.692C25.9018 5.692 26.0559 5.69667 26.1679 5.706C25.9252 6.07933 25.6312 6.49933 25.2858 6.966C24.9499 7.42333 24.7445 7.69867 24.6699 7.792C24.6605 7.80133 24.5999 7.876 24.4879 8.016L24.3059 8.254L23.8018 8.912C23.8485 8.996 23.8952 9.07533 23.9419 9.15C23.9979 9.21533 24.0445 9.276 24.0819 9.332C24.1752 9.5 24.2732 9.654 24.3759 9.794ZM27.9627 9.892C27.972 10.2 27.986 10.4287 28.0047 10.578C28.0327 10.718 28.098 10.8673 28.2007 11.026C28.2754 11.166 28.3734 11.2733 28.4947 11.348C28.616 11.4227 28.742 11.46 28.8727 11.46C29.0687 11.46 29.2274 11.3573 29.3487 11.152C29.47 10.9373 29.5214 10.6247 29.5027 10.214C29.7734 10.2513 30.0627 10.2607 30.3707 10.242L31.6867 10.312C31.6867 10.732 31.654 11.1567 31.5887 11.586C31.5327 12.0153 31.4207 12.342 31.2527 12.566C31.066 12.8273 30.7954 13.0047 30.4407 13.098C30.0954 13.2007 29.6894 13.252 29.2227 13.252C29.0454 13.252 28.798 13.2427 28.4807 13.224C28.3314 13.2147 28.112 13.21 27.8227 13.21C27.5334 13.1727 27.244 13.07 26.9547 12.902C26.5067 12.5473 26.1754 12.0433 25.9607 11.39C25.746 10.7367 25.6387 10.0273 25.6387 9.262C25.6387 8.45933 25.7507 7.722 25.9747 7.05C26.1614 6.63 26.5067 6.30333 27.0107 6.07C27.5147 5.83667 28.0747 5.72 28.6907 5.72C29.0267 5.72 29.3534 5.75733 29.6707 5.832C30.3894 5.972 30.912 6.31267 31.2387 6.854C31.5747 7.386 31.7427 8.02533 31.7427 8.772C31.7427 8.89333 31.7334 9.10333 31.7147 9.402C31.5374 9.44867 31.1314 9.49533 30.4967 9.542C29.862 9.57933 29.2694 9.598 28.7187 9.598H27.9627V9.892ZM29.3347 7.372C29.1947 7.288 29.0687 7.246 28.9567 7.246C28.63 7.246 28.3967 7.32067 28.2567 7.47C28.1167 7.61933 28.0327 7.82933 28.0047 8.1C27.9954 8.13733 27.9907 8.17933 27.9907 8.226C27.9907 8.282 28.0187 8.31467 28.0747 8.324C28.1307 8.33333 28.2707 8.33333 28.4947 8.324H29.1107L29.5307 8.338H29.7127C29.7407 8.34733 29.7594 8.34733 29.7687 8.338C29.778 8.32867 29.7827 8.31 29.7827 8.282V8.226C29.7827 8.03 29.7454 7.85733 29.6707 7.708C29.6054 7.55867 29.512 7.45133 29.3907 7.386L29.3347 7.372ZM34.4214 6.294C34.4681 6.28467 34.5241 6.266 34.5894 6.238C34.6641 6.20067 34.7341 6.17267 34.7994 6.154C35.1914 6.03267 35.7001 5.972 36.3254 5.972C36.7827 5.972 37.0114 5.99533 37.0114 6.042L36.9974 6.77L37.0114 8.66L36.6334 8.534L35.8214 8.338C35.5974 8.31 35.3967 8.296 35.2194 8.296C34.9301 8.296 34.7107 8.366 34.5614 8.506C34.4121 8.646 34.3421 8.88867 34.3514 9.234C34.3887 10.382 34.4074 11.6327 34.4074 12.986C34.1647 13.0513 33.9641 13.0887 33.8054 13.098C33.6467 13.1167 33.4461 13.1213 33.2034 13.112C33.1101 13.1027 32.9607 13.098 32.7554 13.098C32.5314 13.098 32.3167 13.1073 32.1114 13.126C32.1114 12.006 32.1067 11.1753 32.0974 10.634C32.0787 9.42067 32.0694 8.50133 32.0694 7.876C32.0694 7.41867 32.0787 6.77 32.0974 5.93C32.3961 5.96733 32.6294 5.986 32.7974 5.986C33.0401 5.986 33.2781 5.972 33.5114 5.944C33.7354 5.916 33.9547 5.902 34.1694 5.902C34.3281 5.902 34.4074 5.916 34.4074 5.944L34.4214 6.28V6.294ZM43.0337 8.296C42.8004 8.33333 42.539 8.352 42.2497 8.352C41.811 8.352 41.335 8.30067 40.8217 8.198C40.831 8.16067 40.8357 8.1 40.8357 8.016C40.8357 7.82 40.775 7.65667 40.6537 7.526C40.5324 7.39533 40.355 7.33933 40.1217 7.358C39.9817 7.40467 39.865 7.484 39.7717 7.596C39.6877 7.69867 39.6457 7.81533 39.6457 7.946C39.6457 8.09533 39.6877 8.23533 39.7717 8.366C39.8557 8.49667 39.977 8.59467 40.1357 8.66H40.1217C40.8217 8.76267 41.3864 8.884 41.8157 9.024C42.245 9.164 42.5717 9.37867 42.7957 9.668C43.0477 10.0787 43.1737 10.4893 43.1737 10.9C43.1737 11.208 43.099 11.572 42.9497 11.992C42.735 12.44 42.385 12.7713 41.8997 12.986C41.4237 13.2007 40.873 13.3033 40.2477 13.294C39.2304 13.3313 38.4137 13.126 37.7977 12.678C37.191 12.23 36.8877 11.5907 36.8877 10.76C37.261 10.7133 37.6437 10.69 38.0357 10.69L39.3797 10.718C39.389 10.942 39.4777 11.1287 39.6457 11.278C39.8137 11.418 40.0004 11.488 40.2057 11.488C40.355 11.488 40.4857 11.432 40.5977 11.32C40.7097 11.1987 40.761 11.04 40.7517 10.844C40.7797 10.6013 40.705 10.4333 40.5277 10.34C40.3504 10.2373 40.0844 10.1487 39.7297 10.074L39.5197 10.032C39.137 9.948 38.8477 9.864 38.6517 9.78C38.1384 9.584 37.737 9.304 37.4477 8.94C37.1677 8.56667 37.0277 8.17933 37.0277 7.778C37.0277 7.34867 37.1724 6.94733 37.4617 6.574C37.751 6.20067 38.143 5.944 38.6377 5.804C38.9737 5.71067 39.4637 5.664 40.1077 5.664C40.789 5.664 41.405 5.72933 41.9557 5.86C42.4037 6.04667 42.7304 6.35 42.9357 6.77C43.1504 7.18067 43.2577 7.666 43.2577 8.226L43.0337 8.296Z" fill="#7B596E"/>
<path d="M40.802 32.256C38.4553 32.256 36.5993 31.5093 35.234 30.016C33.89 28.5227 33.218 26.336 33.218 23.456C33.218 21.536 33.4953 20.0107 34.05 18.88C34.6047 17.7493 35.3727 16.9493 36.354 16.48C37.3567 15.9893 38.4873 15.744 39.746 15.744C40.8767 15.744 41.794 15.8827 42.498 16.16C43.202 16.4373 43.7567 16.9067 44.162 17.568C44.0127 17.12 43.8953 16.704 43.81 16.32C43.746 15.9147 43.6927 15.4453 43.65 14.912C43.6287 14.3787 43.618 13.696 43.618 12.864V10.112C43.618 8.448 44.3327 7.616 45.762 7.616C47.3193 7.616 48.098 8.448 48.098 10.112V23.648C48.098 26.528 47.458 28.6827 46.178 30.112C44.898 31.5413 43.106 32.256 40.802 32.256ZM40.578 28.416C41.474 28.416 42.1673 28.096 42.658 27.456C43.17 26.816 43.426 25.6213 43.426 23.872C43.426 22.6987 43.3087 21.8133 43.074 21.216C42.8607 20.5973 42.5407 20.1707 42.114 19.936C41.6873 19.7013 41.1753 19.584 40.578 19.584C39.9807 19.584 39.4687 19.7013 39.042 19.936C38.6153 20.1707 38.2847 20.5973 38.05 21.216C37.8367 21.8133 37.73 22.6987 37.73 23.872C37.73 25.6213 37.9753 26.816 38.466 27.456C38.978 28.096 39.682 28.416 40.578 28.416ZM58.5162 32.256C56.2336 32.256 54.4309 31.6053 53.1082 30.304C51.7856 29.0027 51.1242 26.9013 51.1242 24C51.1242 21.0773 51.7856 18.976 53.1082 17.696C54.4309 16.3947 56.2336 15.744 58.5162 15.744C60.7989 15.744 62.6016 16.3947 63.9242 17.696C65.2469 18.976 65.9082 21.0773 65.9082 24C65.9082 26.9013 65.2469 29.0027 63.9242 30.304C62.6016 31.6053 60.7989 32.256 58.5162 32.256ZM58.5162 28.416C59.1136 28.416 59.6149 28.2987 60.0202 28.064C60.4256 27.808 60.7349 27.36 60.9482 26.72C61.1829 26.08 61.3002 25.1733 61.3002 24C61.3002 22.8267 61.1829 21.92 60.9482 21.28C60.7349 20.64 60.4256 20.2027 60.0202 19.968C59.6149 19.712 59.1136 19.584 58.5162 19.584C57.9402 19.584 57.4389 19.712 57.0122 19.968C56.6069 20.2027 56.2869 20.64 56.0522 21.28C55.8389 21.92 55.7322 22.8267 55.7322 24C55.7322 25.1733 55.8389 26.08 56.0522 26.72C56.2869 27.36 56.6069 27.808 57.0122 28.064C57.4389 28.2987 57.9402 28.416 58.5162 28.416ZM75.5475 32.256C73.2648 32.256 71.4622 31.6053 70.1395 30.304C68.8168 29.0027 68.1555 26.9013 68.1555 24C68.1555 21.0773 68.8168 18.976 70.1395 17.696C71.4622 16.3947 73.2648 15.744 75.5475 15.744C77.8302 15.744 79.6328 16.3947 80.9555 17.696C82.2782 18.976 82.9395 21.0773 82.9395 24C82.9395 26.9013 82.2782 29.0027 80.9555 30.304C79.6328 31.6053 77.8302 32.256 75.5475 32.256ZM75.5475 28.416C76.1448 28.416 76.6462 28.2987 77.0515 28.064C77.4568 27.808 77.7662 27.36 77.9795 26.72C78.2142 26.08 78.3315 25.1733 78.3315 24C78.3315 22.8267 78.2142 21.92 77.9795 21.28C77.7662 20.64 77.4568 20.2027 77.0515 19.968C76.6462 19.712 76.1448 19.584 75.5475 19.584C74.9715 19.584 74.4702 19.712 74.0435 19.968C73.6382 20.2027 73.3182 20.64 73.0835 21.28C72.8702 21.92 72.7635 22.8267 72.7635 24C72.7635 25.1733 72.8702 26.08 73.0835 26.72C73.3182 27.36 73.6382 27.808 74.0435 28.064C74.4702 28.2987 74.9715 28.416 75.5475 28.416Z" fill="#959595"/>
</svg>
