<svg width="92" height="41" viewBox="0 0 92 41" fill="none" xmlns="http://www.w3.org/2000/svg">
<path d="M43.696 24.192C41.936 24.192 40.544 23.632 39.52 22.512C38.512 21.392 38.008 19.752 38.008 17.592C38.008 16.152 38.216 15.008 38.632 14.16C39.048 13.312 39.624 12.712 40.36 12.36C41.112 11.992 41.96 11.808 42.904 11.808C43.752 11.808 44.44 11.912 44.968 12.12C45.496 12.328 45.912 12.68 46.216 13.176C46.104 12.84 46.016 12.528 45.952 12.24C45.904 11.936 45.864 11.584 45.832 11.184C45.816 10.784 45.808 10.272 45.808 9.648V7.584C45.808 6.336 46.344 5.712 47.416 5.712C48.584 5.712 49.168 6.336 49.168 7.584V17.736C49.168 19.896 48.688 21.512 47.728 22.584C46.768 23.656 45.424 24.192 43.696 24.192ZM43.528 21.312C44.2 21.312 44.72 21.072 45.088 20.592C45.472 20.112 45.664 19.216 45.664 17.904C45.664 17.024 45.576 16.36 45.4 15.912C45.24 15.448 45 15.128 44.68 14.952C44.36 14.776 43.976 14.688 43.528 14.688C43.08 14.688 42.696 14.776 42.376 14.952C42.056 15.128 41.808 15.448 41.632 15.912C41.472 16.36 41.392 17.024 41.392 17.904C41.392 19.216 41.576 20.112 41.944 20.592C42.328 21.072 42.856 21.312 43.528 21.312ZM56.9817 24.192C55.2697 24.192 53.9177 23.704 52.9257 22.728C51.9337 21.752 51.4377 20.176 51.4377 18C51.4377 15.808 51.9337 14.232 52.9257 13.272C53.9177 12.296 55.2697 11.808 56.9817 11.808C58.6937 11.808 60.0457 12.296 61.0377 13.272C62.0297 14.232 62.5257 15.808 62.5257 18C62.5257 20.176 62.0297 21.752 61.0377 22.728C60.0457 23.704 58.6937 24.192 56.9817 24.192ZM56.9817 21.312C57.4297 21.312 57.8057 21.224 58.1097 21.048C58.4137 20.856 58.6457 20.52 58.8057 20.04C58.9817 19.56 59.0697 18.88 59.0697 18C59.0697 17.12 58.9817 16.44 58.8057 15.96C58.6457 15.48 58.4137 15.152 58.1097 14.976C57.8057 14.784 57.4297 14.688 56.9817 14.688C56.5497 14.688 56.1737 14.784 55.8537 14.976C55.5497 15.152 55.3097 15.48 55.1337 15.96C54.9737 16.44 54.8937 17.12 54.8937 18C54.8937 18.88 54.9737 19.56 55.1337 20.04C55.3097 20.52 55.5497 20.856 55.8537 21.048C56.1737 21.224 56.5497 21.312 56.9817 21.312ZM69.7551 24.192C68.0431 24.192 66.6911 23.704 65.6991 22.728C64.7071 21.752 64.2111 20.176 64.2111 18C64.2111 15.808 64.7071 14.232 65.6991 13.272C66.6911 12.296 68.0431 11.808 69.7551 11.808C71.4671 11.808 72.8191 12.296 73.8111 13.272C74.8031 14.232 75.2991 15.808 75.2991 18C75.2991 20.176 74.8031 21.752 73.8111 22.728C72.8191 23.704 71.4671 24.192 69.7551 24.192ZM69.7551 21.312C70.2031 21.312 70.5791 21.224 70.8831 21.048C71.1871 20.856 71.4191 20.52 71.5791 20.04C71.7551 19.56 71.8431 18.88 71.8431 18C71.8431 17.12 71.7551 16.44 71.5791 15.96C71.4191 15.48 71.1871 15.152 70.8831 14.976C70.5791 14.784 70.2031 14.688 69.7551 14.688C69.3231 14.688 68.9471 14.784 68.6271 14.976C68.3231 15.152 68.0831 15.48 67.9071 15.96C67.7471 16.44 67.6671 17.12 67.6671 18C67.6671 18.88 67.7471 19.56 67.9071 20.04C68.0831 20.52 68.3231 20.856 68.6271 21.048C68.9471 21.224 69.3231 21.312 69.7551 21.312Z" fill="#959595"/>
<path d="M11.328 24.744C10.656 24.856 9.992 24.912 9.336 24.912C8.552 24.912 7.864 24.824 7.272 24.648C7.304 24.488 7.32 24.376 7.32 24.312C7.32 23.944 7.184 23.64 6.912 23.4C6.64 23.16 6.336 23.04 6 23.04C5.76 23.04 5.544 23.12 5.352 23.28C5.176 23.424 5.072 23.648 5.04 23.952C4.992 24.096 4.968 24.224 4.968 24.336L4.992 24.552C4.992 24.584 4.992 24.6 4.992 24.6C5.104 24.936 5.264 25.168 5.472 25.296C5.696 25.424 5.96 25.512 6.264 25.56C7.064 25.672 7.872 25.968 8.688 26.448C9.504 26.928 10.16 27.488 10.656 28.128C10.96 28.544 11.2 29.008 11.376 29.52C11.552 30.016 11.64 30.504 11.64 30.984C11.64 31.816 11.456 32.624 11.088 33.408C10.672 34.304 10.032 35 9.168 35.496C8.304 35.992 7.36 36.24 6.336 36.24C5.296 36.24 4.28 36.04 3.288 35.64C2.312 35.224 1.52 34.632 0.911999 33.864C0.303999 33.096 0.0319993 32.208 0.0959993 31.2V30.984C0.559999 30.904 1.072 30.864 1.632 30.864C2.112 30.864 2.52 30.872 2.856 30.888C3.16 30.904 3.704 30.912 4.488 30.912C4.504 31.392 4.648 31.768 4.92 32.04C5.208 32.312 5.536 32.448 5.904 32.448C6.224 32.448 6.488 32.344 6.696 32.136C6.92 31.928 7.032 31.632 7.032 31.248C7.032 31.104 7.024 30.992 7.008 30.912C6.928 30.32 6.648 29.904 6.168 29.664C5.688 29.424 5.04 29.224 4.224 29.064L3.864 28.992C3.176 28.864 2.576 28.584 2.064 28.152C1.488 27.592 1.056 26.992 0.767999 26.352C0.479999 25.712 0.335999 25.072 0.335999 24.432C0.335999 23.392 0.647999 22.416 1.272 21.504C1.912 20.576 2.736 19.904 3.744 19.488C4.368 19.232 5.144 19.104 6.072 19.104C7.272 19.104 8.368 19.328 9.36 19.776C10.096 20.16 10.68 20.664 11.112 21.288C11.544 21.912 11.76 22.648 11.76 23.496C11.76 23.816 11.712 24.232 11.616 24.744H11.328ZM16.2324 24.864C16.2484 24.864 16.2484 24.864 16.2324 24.864C16.2324 24.848 16.2404 24.84 16.2564 24.84C16.6404 24.584 17.0804 24.384 17.5764 24.24C18.0884 24.08 18.5924 24 19.0884 24C20.1444 24 20.9604 24.256 21.5364 24.768C21.9844 25.168 22.2084 26.488 22.2084 28.728C22.2084 29.384 22.1924 30.384 22.1604 31.728C22.1284 32.88 22.1124 33.704 22.1124 34.2C22.1124 34.744 22.1284 35.352 22.1604 36.024C21.2804 36.152 20.4164 36.2 19.5684 36.168H18.4404C18.4084 35.688 18.3924 34.76 18.3924 33.384V32.184C18.3924 31.4 18.3764 30.832 18.3444 30.48L18.3204 30.336V30.168C18.2884 29.72 18.2484 29.368 18.2004 29.112C18.1684 28.856 18.0644 28.616 17.8884 28.392C17.7284 28.168 17.4724 28.056 17.1204 28.056C16.8644 28.056 16.6324 28.168 16.4244 28.392C16.2164 28.616 16.1044 28.952 16.0884 29.4C16.0724 29.64 16.0644 30.008 16.0644 30.504C16.0644 30.904 16.0804 31.488 16.1124 32.256C16.1444 33.056 16.1604 33.656 16.1604 34.056C16.1604 34.776 16.1284 35.416 16.0644 35.976C15.6324 36.088 15.2804 36.152 15.0084 36.168C14.7524 36.2 14.4644 36.208 14.1444 36.192C14.0004 36.176 13.7684 36.168 13.4484 36.168C13.0804 36.168 12.7204 36.184 12.3684 36.216C12.3684 34.296 12.3604 32.872 12.3444 31.944C12.3124 29.864 12.2964 28.288 12.2964 27.216C12.2964 26.432 12.3124 25.32 12.3444 23.88C12.8564 23.944 13.2564 23.976 13.5444 23.976C13.8164 23.976 14.0804 23.96 14.3364 23.928L14.7444 23.88C15.0964 23.848 15.3684 23.832 15.5604 23.832C15.9444 23.832 16.1524 23.888 16.1844 24C16.2164 24.192 16.2324 24.472 16.2324 24.84V24.864ZM33.4931 23.928C33.4931 24.008 33.5011 24.144 33.5171 24.336C33.5491 24.528 33.5651 24.704 33.5651 24.864C33.5491 25.28 33.5411 25.904 33.5411 26.736C33.5411 27.856 33.5491 28.696 33.5651 29.256V30.696L33.5891 32.136C33.5891 33.08 33.5651 34.048 33.5171 35.04V35.28C33.5171 35.536 33.4851 35.736 33.4211 35.88C33.3571 36.008 33.1891 36.096 32.9171 36.144H29.8691C29.5011 36.032 29.3171 35.816 29.3171 35.496V35.328C28.9171 35.584 28.4771 35.792 27.9971 35.952C27.5171 36.096 27.0531 36.168 26.6051 36.168C25.7571 36.168 25.0371 35.824 24.4451 35.136C23.8691 34.448 23.4371 33.6 23.1491 32.592C22.8611 31.568 22.7171 30.576 22.7171 29.616C22.7171 28.56 22.9091 27.608 23.2931 26.76C23.6771 25.896 24.2051 25.216 24.8771 24.72C25.5491 24.224 26.2931 23.968 27.1091 23.952C27.6051 23.952 28.0691 23.992 28.5011 24.072C28.9331 24.152 29.2051 24.248 29.3171 24.36C29.3171 24.28 29.3011 24.176 29.2691 24.048C29.2371 23.92 29.2451 23.824 29.2931 23.76C29.3251 23.728 29.4371 23.712 29.6291 23.712C29.9171 23.712 30.2931 23.736 30.7571 23.784C31.2371 23.816 31.5411 23.84 31.6691 23.856L33.1811 23.928H33.4931ZM26.3891 30.096C26.3891 30.8 26.5491 31.392 26.8691 31.872C27.1891 32.336 27.6211 32.568 28.1651 32.568C28.5171 32.568 28.7731 32.472 28.9331 32.28C29.0931 32.088 29.1891 31.832 29.2211 31.512C29.2691 31.192 29.2931 30.712 29.2931 30.072V29.448C29.2931 28.76 29.2771 28.296 29.2451 28.056C29.2291 27.8 29.1571 27.632 29.0291 27.552C28.9171 27.456 28.7091 27.408 28.4051 27.408C27.8931 27.408 27.4771 27.552 27.1571 27.84C26.8371 28.112 26.6291 28.448 26.5331 28.848C26.4371 29.168 26.3891 29.584 26.3891 30.096ZM41.7872 30.504C43.1472 32.616 44.2352 34.488 45.0512 36.12L43.6112 36.168C42.9712 36.2 42.4672 36.216 42.0992 36.216C41.3792 36.216 40.8512 36.176 40.5152 36.096C40.4192 35.936 40.1632 35.464 39.7472 34.68L39.4352 34.08C39.2592 33.776 39.1712 33.608 39.1712 33.576L38.5952 32.448V33.096L38.6192 33.864C38.6192 34.824 38.5632 35.584 38.4512 36.144C38.2592 36.128 37.7232 36.12 36.8432 36.12C36.3632 36.152 35.9632 36.168 35.6432 36.168C35.3232 36.168 34.9712 36.136 34.5872 36.072C34.5232 34.408 34.4912 32.528 34.4912 30.432C34.4912 29.2 34.5072 27.368 34.5392 24.936C34.5712 22.472 34.5872 20.312 34.5872 18.456C35.2432 18.456 35.6992 18.448 35.9552 18.432H36.5552L37.1792 18.408L37.9952 18.456L38.5712 18.48V24.384L38.5472 24.96C38.5312 25.216 38.5232 25.584 38.5232 26.064L38.4992 26.352C38.6752 26.16 38.8032 25.984 38.8832 25.824C38.9632 25.664 39.0272 25.536 39.0752 25.44C39.1072 25.392 39.1392 25.328 39.1712 25.248C39.2192 25.152 39.2672 25.064 39.3152 24.984V25.008C39.7312 24.304 40.1232 23.736 40.4912 23.304C40.9552 23.464 41.4192 23.544 41.8832 23.544C42.1392 23.544 42.5392 23.528 43.0832 23.496H43.2032C43.3632 23.48 43.6512 23.472 44.0672 23.472C44.4032 23.472 44.6672 23.48 44.8592 23.496C44.4432 24.136 43.9392 24.856 43.3472 25.656C42.7712 26.44 42.4192 26.912 42.2912 27.072C42.2752 27.088 42.1712 27.216 41.9792 27.456L41.6672 27.864L40.8032 28.992C40.8832 29.136 40.9632 29.272 41.0432 29.4C41.1392 29.512 41.2192 29.616 41.2832 29.712C41.4432 30 41.6112 30.264 41.7872 30.504ZM47.9361 30.672C47.9521 31.2 47.9761 31.592 48.0081 31.848C48.0561 32.088 48.1681 32.344 48.3441 32.616C48.4721 32.856 48.6401 33.04 48.8481 33.168C49.0561 33.296 49.2721 33.36 49.4961 33.36C49.8321 33.36 50.1041 33.184 50.3121 32.832C50.5201 32.464 50.6081 31.928 50.5761 31.224C51.0401 31.288 51.5361 31.304 52.0641 31.272L54.3201 31.392C54.3201 32.112 54.2641 32.84 54.1521 33.576C54.0561 34.312 53.8641 34.872 53.5761 35.256C53.2561 35.704 52.7921 36.008 52.1841 36.168C51.5921 36.344 50.8961 36.432 50.0961 36.432C49.7921 36.432 49.3681 36.416 48.8241 36.384C48.5681 36.368 48.1921 36.36 47.6961 36.36C47.2001 36.296 46.7041 36.12 46.2081 35.832C45.4401 35.224 44.8721 34.36 44.5041 33.24C44.1361 32.12 43.9521 30.904 43.9521 29.592C43.9521 28.216 44.1441 26.952 44.5281 25.8C44.8481 25.08 45.4401 24.52 46.3041 24.12C47.1681 23.72 48.1281 23.52 49.1841 23.52C49.7601 23.52 50.3201 23.584 50.8641 23.712C52.0961 23.952 52.9921 24.536 53.5521 25.464C54.1281 26.376 54.4161 27.472 54.4161 28.752C54.4161 28.96 54.4001 29.32 54.3681 29.832C54.0641 29.912 53.3681 29.992 52.2801 30.072C51.1921 30.136 50.1761 30.168 49.2321 30.168H47.9361V30.672ZM50.2881 26.352C50.0481 26.208 49.8321 26.136 49.6401 26.136C49.0801 26.136 48.6801 26.264 48.4401 26.52C48.2001 26.776 48.0561 27.136 48.0081 27.6C47.9921 27.664 47.9841 27.736 47.9841 27.816C47.9841 27.912 48.0321 27.968 48.1281 27.984C48.2241 28 48.4641 28 48.8481 27.984H49.9041L50.6241 28.008H50.9361C50.9841 28.024 51.0161 28.024 51.0321 28.008C51.0481 27.992 51.0561 27.96 51.0561 27.912V27.816C51.0561 27.48 50.9921 27.184 50.8641 26.928C50.7521 26.672 50.5921 26.488 50.3841 26.376L50.2881 26.352ZM59.0081 24.504C59.0881 24.488 59.1841 24.456 59.2961 24.408C59.4241 24.344 59.5441 24.296 59.6561 24.264C60.3281 24.056 61.2001 23.952 62.2721 23.952C63.0561 23.952 63.4481 23.992 63.4481 24.072L63.4241 25.32L63.4481 28.56L62.8001 28.344L61.4081 28.008C61.0241 27.96 60.6801 27.936 60.3761 27.936C59.8801 27.936 59.5041 28.056 59.2481 28.296C58.9921 28.536 58.8721 28.952 58.8881 29.544C58.9521 31.512 58.9841 33.656 58.9841 35.976C58.5681 36.088 58.2241 36.152 57.9521 36.168C57.6801 36.2 57.3361 36.208 56.9201 36.192C56.7601 36.176 56.5041 36.168 56.1521 36.168C55.7681 36.168 55.4001 36.184 55.0481 36.216C55.0481 34.296 55.0401 32.872 55.0241 31.944C54.9921 29.864 54.9761 28.288 54.9761 27.216C54.9761 26.432 54.9921 25.32 55.0241 23.88C55.5361 23.944 55.9361 23.976 56.2241 23.976C56.6401 23.976 57.0481 23.952 57.4481 23.904C57.8321 23.856 58.2081 23.832 58.5761 23.832C58.8481 23.832 58.9841 23.856 58.9841 23.904L59.0081 24.48V24.504ZM73.7721 27.936C73.3721 28 72.9241 28.032 72.4281 28.032C71.6761 28.032 70.8601 27.944 69.9801 27.768C69.9961 27.704 70.0041 27.6 70.0041 27.456C70.0041 27.12 69.9001 26.84 69.6921 26.616C69.4841 26.392 69.1801 26.296 68.7801 26.328C68.5401 26.408 68.3401 26.544 68.1801 26.736C68.0361 26.912 67.9641 27.112 67.9641 27.336C67.9641 27.592 68.0361 27.832 68.1801 28.056C68.3241 28.28 68.5321 28.448 68.8041 28.56H68.7801C69.9801 28.736 70.9481 28.944 71.6841 29.184C72.4201 29.424 72.9801 29.792 73.3641 30.288C73.7961 30.992 74.0121 31.696 74.0121 32.4C74.0121 32.928 73.8841 33.552 73.6281 34.272C73.2601 35.04 72.6601 35.608 71.8281 35.976C71.0121 36.344 70.0681 36.52 68.9961 36.504C67.2521 36.568 65.8521 36.216 64.7961 35.448C63.7561 34.68 63.2361 33.584 63.2361 32.16C63.8761 32.08 64.5321 32.04 65.2041 32.04L67.5081 32.088C67.5241 32.472 67.6761 32.792 67.9641 33.048C68.2521 33.288 68.5721 33.408 68.9241 33.408C69.1801 33.408 69.4041 33.312 69.5961 33.12C69.7881 32.912 69.8761 32.64 69.8601 32.304C69.9081 31.888 69.7801 31.6 69.4761 31.44C69.1721 31.264 68.7161 31.112 68.1081 30.984L67.7481 30.912C67.0921 30.768 66.5961 30.624 66.2601 30.48C65.3801 30.144 64.6921 29.664 64.1961 29.04C63.7161 28.4 63.4761 27.736 63.4761 27.048C63.4761 26.312 63.7241 25.624 64.2201 24.984C64.7161 24.344 65.3881 23.904 66.2361 23.664C66.8121 23.504 67.6521 23.424 68.7561 23.424C69.9241 23.424 70.9801 23.536 71.9241 23.76C72.6921 24.08 73.2521 24.6 73.6041 25.32C73.9721 26.024 74.1561 26.856 74.1561 27.816L73.7721 27.936Z" fill="#7B596E"/>
</svg>
